<?xml version="1.0" standalone="no"?>
<!DOCTYPE svg PUBLIC "-//W3C//DTD SVG 20010904//EN"
 "http://www.w3.org/TR/2001/REC-SVG-20010904/DTD/svg10.dtd">
<svg version="1.0" xmlns="http://www.w3.org/2000/svg"
 width="6213.000000pt" height="6213.000000pt" viewBox="0 0 6213.000000 6213.000000"
 preserveAspectRatio="xMidYMid meet">
<metadata>
Created by potrace 1.11, written by Peter Selinger 2001-2013
</metadata>
<g transform="translate(0.000000,6213.000000) scale(0.100000,-0.100000)"
fill="#000000" stroke="none">
<path d="M30819 61808 c-268 -370 -415 -587 -551 -814 -680 -1132 -1063 -2367
-1148 -3699 -5 -88 -10 -315 -10 -505 0 -190 5 -417 10 -505 97 -1507 583
-2913 1434 -4139 140 -202 496 -691 505 -694 11 -4 438 584 588 808 1129 1691
1578 3705 1282 5740 -172 1178 -605 2302 -1274 3310 -142 213 -575 812 -591
817 -6 2 -116 -142 -245 -319z m319 -1575 c485 -885 764 -1813 858 -2858 22
-235 25 -874 6 -1100 -70 -838 -245 -1561 -552 -2285 -103 -242 -369 -770
-389 -770 -8 0 -144 254 -234 435 -129 260 -257 572 -357 875 -592 1776 -461
3737 361 5405 89 181 222 425 230 425 4 0 38 -57 77 -127z"/>
<path d="M21275 57484 c-317 -15 -1195 -102 -1195 -119 0 -18 325 -738 420
-930 911 -1843 2501 -3275 4445 -4005 736 -276 1485 -438 2315 -502 204 -15
893 -16 1085 0 297 24 985 97 985 105 0 20 -333 754 -435 957 -316 632 -693
1193 -1166 1735 -141 162 -544 566 -704 706 -966 847 -2068 1441 -3290 1773
-490 133 -1040 226 -1575 266 -150 11 -744 20 -885 14z m715 -1004 c667 -41
1232 -149 1850 -352 1400 -460 2624 -1341 3505 -2523 129 -172 280 -397 384
-570 l73 -120 -69 -3 c-89 -5 -449 15 -633 33 -1521 155 -2954 790 -4090 1811
-171 153 -491 480 -631 644 -212 247 -405 504 -571 760 -77 119 -198 317 -198
325 0 8 208 5 380 -5z"/>
<path d="M40235 57483 c-1288 -52 -2543 -400 -3653 -1015 -1434 -793 -2584
-1984 -3321 -3438 -85 -167 -447 -959 -454 -992 -2 -11 353 -53 783 -92 1064
-98 2135 15 3160 333 980 303 1923 807 2723 1454 318 257 702 623 962 917 491
556 900 1167 1221 1824 87 178 404 881 404 895 0 6 -445 55 -790 86 -310 29
-734 40 -1035 28z m284 -1015 c-7 -13 -52 -88 -102 -168 -809 -1308 -2027
-2323 -3472 -2893 -648 -255 -1381 -424 -2074 -477 -192 -14 -531 -24 -531
-16 0 14 129 225 233 380 456 686 1001 1262 1662 1759 1087 816 2434 1323
3765 1417 225 15 242 16 393 18 l138 2 -12 -22z"/>
<path d="M47715 53209 c-2146 -104 -4603 -627 -7590 -1616 -2300 -762 -4873
-1787 -8230 -3280 -499 -222 -553 -244 -580 -235 -16 6 -262 112 -545 237
-5187 2283 -9229 3694 -12565 4386 -2067 429 -3894 581 -5435 453 -2572 -213
-4438 -1193 -5608 -2947 -455 -681 -665 -1237 -759 -2007 -25 -207 -25 -846 0
-1070 102 -899 374 -1774 843 -2707 103 -206 105 -193 -16 -193 -36 0 -157 -7
-270 -15 -1730 -129 -3119 -668 -4012 -1558 -340 -339 -569 -664 -829 -1175
-372 -734 -592 -1488 -671 -2302 -18 -183 -18 -936 0 -1125 63 -670 215 -1338
458 -2006 913 -2519 3090 -5263 6679 -8414 1789 -1571 4021 -3319 6921 -5420
l261 -189 62 -562 c527 -4795 1150 -8404 1966 -11389 1372 -5020 3295 -8133
5810 -9405 516 -261 1034 -440 1595 -549 589 -114 1267 -148 1745 -85 460 60
894 193 1337 411 227 111 355 184 558 318 352 231 657 482 996 820 407 406
733 807 1086 1335 83 124 154 226 157 227 3 1 53 -70 110 -158 489 -756 1098
-1444 1706 -1928 720 -575 1504 -926 2293 -1025 402 -51 961 -38 1472 35 671
95 1294 289 1890 585 282 141 454 240 698 401 1108 734 2070 1846 2922 3378
145 260 458 887 592 1185 1232 2731 2121 6339 2803 11370 162 1194 335 2657
480 4050 25 239 47 454 50 477 6 41 10 45 153 150 3596 2633 6036 4615 8212
6668 526 496 1388 1367 1860 1880 2470 2682 3883 5095 4260 7278 222 1287 94
2482 -387 3612 -178 418 -407 829 -622 1115 -230 306 -533 605 -856 846 -682
507 -1571 866 -2596 1048 -380 68 -808 116 -1164 133 -80 3 -145 7 -145 8 0 1
56 116 124 256 198 406 331 725 458 1099 238 704 351 1308 365 1950 20 885
-173 1648 -592 2350 -878 1469 -2146 2438 -3840 2935 -680 199 -1459 323
-2304 365 -231 11 -1064 11 -1306 -1z m1240 -989 c1265 -67 2317 -324 3195
-782 836 -436 1503 -1040 2022 -1833 222 -339 328 -550 428 -855 169 -511 206
-1119 109 -1760 -122 -808 -498 -1799 -1013 -2672 -40 -69 -44 -73 -82 -75
-2190 -139 -4232 -805 -5404 -1762 -140 -114 -378 -352 -476 -476 -215 -273
-352 -559 -411 -860 -27 -139 -25 -425 5 -572 44 -218 133 -431 264 -630 91
-137 292 -341 423 -430 618 -418 1458 -369 2460 142 540 276 1114 682 1690
1194 192 170 717 699 901 906 396 448 776 937 1082 1396 70 105 72 107 114
111 71 8 640 -10 843 -27 1807 -147 3090 -746 3762 -1755 360 -540 640 -1291
743 -1992 50 -340 67 -829 41 -1168 -110 -1403 -704 -2903 -1804 -4550 -1692
-2533 -4568 -5388 -8747 -8681 -716 -564 -1295 -1009 -2185 -1677 -584 -438
-670 -499 -673 -480 -2 13 24 300 57 638 33 338 97 993 141 1455 45 462 103
1049 128 1304 l47 465 80 56 c44 31 211 146 370 255 1360 932 2476 1775 3303
2492 300 260 479 428 792 742 491 491 770 822 1045 1240 133 202 197 314 311
545 241 488 382 978 425 1474 15 178 6 571 -16 731 -131 941 -644 1756 -1405
2229 -348 217 -729 351 -1135 398 -168 20 -511 14 -673 -10 -795 -120 -1492
-556 -2069 -1294 -105 -133 -307 -436 -403 -602 -678 -1177 -1088 -3141 -1535
-7345 -20 -187 -37 -340 -38 -341 -11 -10 -1506 -998 -1932 -1276 -308 -202
-717 -470 -910 -596 -192 -126 -351 -225 -353 -221 -11 26 120 1803 193 2639
443 5027 1224 8055 2525 9789 343 456 747 837 1153 1087 66 40 95 64 92 73 -5
12 -461 804 -484 840 -7 11 -47 -5 -202 -82 -537 -265 -1093 -402 -1819 -448
-364 -23 -944 -2 -1395 51 -1921 226 -4351 1036 -7625 2543 -1043 479 -2714
1289 -2707 1310 3 11 2128 1082 2990 1508 l667 330 758 -345 c2300 -1045 3538
-1562 4527 -1892 849 -283 1360 -382 1817 -354 943 58 1713 330 2323 821 496
399 853 947 1005 1544 165 650 92 1326 -210 1920 -88 174 -161 295 -256 421
-551 734 -1396 1181 -2456 1299 -196 22 -660 30 -878 16 -1425 -97 -3392 -775
-6382 -2201 l-258 -122 -932 427 c-513 235 -1250 572 -1638 748 -388 176 -706
321 -708 322 -3 2 54 27 588 262 4187 1840 7378 3011 10130 3717 1647 423
3191 672 4505 729 184 8 991 6 1160 -3z m-34325 -70 c654 -36 1334 -107 2002
-210 3192 -490 7122 -1740 12149 -3863 624 -264 1302 -556 1311 -565 7 -8
-3522 -1615 -3547 -1615 -5 0 -167 76 -360 168 -3130 1498 -5084 2176 -6560
2276 -204 14 -599 6 -805 -16 -929 -99 -1700 -445 -2275 -1020 -1047 -1047
-1205 -2644 -373 -3758 124 -165 383 -424 550 -548 502 -373 1075 -584 1808
-664 200 -22 673 -31 885 -16 1320 92 3203 734 6690 2281 226 100 412 183 416
185 12 8 3419 -1701 3419 -1716 0 -10 -1243 -615 -1975 -961 -4286 -2027
-7216 -2948 -9369 -2948 -874 0 -1585 148 -2211 460 l-192 95 -244 -422 c-134
-233 -245 -429 -247 -437 -2 -7 19 -26 45 -41 104 -61 289 -191 406 -284 714
-574 1302 -1451 1792 -2671 769 -1917 1271 -4665 1589 -8700 56 -701 139
-1890 133 -1896 -2 -2 -422 271 -1487 968 -261 171 -806 531 -1210 800 l-735
489 -28 297 c-373 3932 -632 5639 -1004 6612 -158 413 -454 854 -843 1254
-586 604 -1237 950 -1995 1063 -170 25 -600 25 -770 0 -832 -123 -1519 -565
-1963 -1262 -86 -135 -208 -383 -266 -539 -192 -523 -237 -1136 -125 -1724 95
-503 298 -1011 601 -1506 724 -1182 2266 -2558 4968 -4431 173 -120 351 -244
395 -274 l80 -57 37 -399 c78 -828 230 -2424 267 -2795 21 -212 38 -386 36
-388 -4 -4 -624 451 -1290 947 -3368 2507 -5828 4594 -7674 6511 -3867 4018
-5068 7355 -3659 10174 165 331 293 533 471 746 626 749 1649 1238 2992 1429
375 54 688 78 1146 88 l295 6 118 -173 c872 -1279 1919 -2351 2996 -3066 1108
-734 2064 -968 2795 -683 202 78 370 191 535 358 133 135 221 259 310 436 78
156 118 268 151 425 31 143 33 417 5 565 -215 1152 -1675 2161 -3946 2725
-697 173 -1372 283 -2106 343 l-269 22 -97 170 c-203 353 -442 851 -585 1214
-320 816 -473 1616 -434 2267 36 597 175 1055 466 1540 740 1232 1903 2056
3470 2459 645 166 1312 255 2165 289 156 6 962 -4 1150 -14z m5200 -4829
c1176 -141 2793 -701 5046 -1746 197 -92 380 -177 407 -188 26 -12 47 -24 47
-28 0 -7 -8 -11 -635 -281 -2645 -1141 -4244 -1672 -5300 -1759 -278 -23 -740
-2 -1010 45 -865 152 -1473 626 -1674 1304 -54 184 -66 276 -65 512 0 195 3
227 28 345 79 378 243 698 511 999 286 322 741 586 1230 716 139 37 348 75
490 89 61 6 126 13 145 15 19 2 163 3 320 1 211 -2 330 -8 460 -24z m23490 5
c639 -89 1118 -301 1488 -660 177 -172 282 -316 387 -531 263 -537 242 -1125
-58 -1655 -304 -539 -888 -927 -1633 -1084 -268 -56 -649 -94 -819 -81 -657
50 -1869 482 -4070 1452 -381 169 -1533 686 -1562 702 -7 3 32 27 90 53 1014
464 1502 676 2152 933 1106 438 2016 712 2750 830 126 20 285 40 480 59 104
10 685 -3 795 -18z m-11445 -599 c784 -351 2696 -1221 2778 -1264 l30 -15
-1279 -642 c-703 -354 -1517 -763 -1809 -910 l-530 -268 -1030 521 c-566 287
-1319 667 -1672 844 -354 177 -643 324 -643 327 0 3 728 336 1618 740 889 404
1703 773 1807 821 178 81 192 86 220 74 17 -7 246 -109 510 -228z m20954
-3689 c-474 -608 -1045 -1203 -1604 -1668 -851 -709 -1700 -1140 -2247 -1140
-288 0 -493 125 -613 375 -91 189 -87 364 14 563 121 239 398 514 762 755 780
517 1944 940 3201 1163 213 38 580 93 587 88 2 -2 -43 -63 -100 -136z m-43359
98 c1523 -231 2896 -726 3705 -1336 291 -220 470 -414 577 -624 134 -265 94
-540 -109 -756 -80 -86 -163 -136 -273 -166 -90 -25 -330 -25 -453 -1 -627
126 -1412 588 -2247 1325 -190 168 -640 616 -817 812 -212 237 -477 556 -617
743 -35 46 -52 46 234 3z m23115 -1378 c2086 -1016 3706 -1729 5185 -2283
2603 -975 4696 -1399 6345 -1285 77 6 157 13 178 16 l37 6 -123 -184 c-417
-622 -790 -1385 -1102 -2258 -855 -2395 -1344 -5604 -1663 -10905 l-17 -290
-420 -279 c-1707 -1132 -3008 -2042 -4125 -2884 -2459 -1854 -4112 -3454
-5126 -4962 -248 -369 -406 -640 -584 -1002 l-102 -207 -108 217 c-181 367
-342 642 -587 1006 -1053 1563 -2836 3261 -5463 5206 -1023 758 -2012 1446
-3505 2443 -379 253 -691 465 -692 471 -1 6 -12 164 -23 351 -217 3566 -490
5999 -900 8030 -447 2209 -1063 3886 -1864 5070 -63 93 -114 171 -113 172 2 1
47 -2 102 -7 353 -34 956 -31 1400 6 2272 188 5090 1119 9075 2997 657 309
1725 828 2374 1154 l300 150 575 -285 c317 -156 743 -365 946 -464z m17828
-5817 c361 -78 668 -250 932 -522 165 -170 266 -311 365 -508 154 -308 226
-595 237 -946 21 -652 -214 -1333 -690 -2000 -346 -485 -913 -1072 -1636
-1692 -554 -476 -1224 -995 -2041 -1583 -348 -250 -821 -582 -824 -578 -4 4
83 746 144 1239 324 2610 667 4161 1109 5014 469 906 1097 1457 1806 1585 150
27 451 22 598 -9z m-38056 -205 c332 -70 684 -238 967 -460 297 -232 605 -586
820 -940 317 -523 575 -1881 860 -4541 57 -533 157 -1527 154 -1530 -4 -3
-467 326 -789 560 -1727 1252 -2879 2289 -3488 3138 -624 870 -844 1769 -616
2521 187 619 669 1085 1275 1235 173 43 253 51 480 47 183 -4 233 -8 337 -30z
m4438 -9792 c394 -260 806 -530 2275 -1492 l675 -442 69 -1227 c37 -676 85
-1518 106 -1873 21 -355 37 -646 36 -647 -2 -2 -1670 1188 -2666 1902 l-576
413 -17 169 c-72 699 -189 1877 -251 2538 -99 1040 -92 950 -75 939 8 -4 198
-130 424 -280z m28740 89 c-3 -21 -66 -668 -141 -1438 -227 -2359 -240 -2475
-261 -2495 -37 -36 -1126 -818 -2787 -2002 -99 -70 -181 -126 -182 -125 -2 1
12 254 31 562 31 509 195 3416 195 3457 0 12 63 59 188 141 103 67 617 404
1142 747 525 344 1146 752 1380 907 234 154 428 282 433 282 4 1 5 -16 2 -36z
m-24287 -3020 c2130 -1430 3599 -2500 4872 -3548 674 -554 1193 -1020 1743
-1565 735 -726 1273 -1361 1706 -2010 620 -930 941 -1774 991 -2605 5 -93 10
-176 10 -182 0 -10 106 -13 498 -13 l499 0 7 152 c76 1693 1360 3584 3931
5794 1366 1173 2963 2352 5480 4043 325 219 360 240 363 219 4 -35 -112 -2100
-173 -3083 -50 -795 -65 -989 -78 -1001 -7 -6 -241 -175 -522 -375 -1966
-1400 -3099 -2255 -3875 -2923 -450 -387 -856 -790 -1085 -1076 -227 -284
-440 -708 -593 -1180 -342 -1058 -235 -2102 297 -2901 125 -188 203 -283 365
-444 426 -424 943 -680 1559 -773 144 -21 604 -24 747 -4 696 99 1306 404
1847 926 380 365 740 884 986 1421 592 1291 964 3260 1222 6470 14 175 27 320
28 321 1 1 308 219 682 484 718 510 1779 1266 2079 1483 l179 129 -7 -54 c-3
-29 -31 -280 -61 -558 -516 -4693 -1118 -8119 -1910 -10870 -550 -1910 -1196
-3488 -1930 -4715 -1076 -1797 -2351 -2907 -3851 -3350 -418 -123 -818 -191
-1289 -216 -611 -33 -1109 64 -1634 317 -204 98 -303 155 -506 290 -637 423
-1246 1063 -1795 1885 -131 196 -341 538 -376 613 l-16 33 90 189 c655 1372
1067 2845 1151 4118 14 203 14 684 1 852 -48 604 -187 1090 -422 1468 -161
260 -392 477 -639 601 -438 221 -1013 229 -1465 21 -103 -48 -255 -150 -354
-236 -541 -477 -814 -1415 -750 -2580 70 -1278 483 -2771 1162 -4207 l100
-211 -92 -159 c-809 -1384 -1814 -2369 -2825 -2771 -575 -228 -1122 -282
-1860 -181 -2451 333 -4413 2379 -5921 6177 -1255 3159 -2200 7563 -2889
13472 -30 261 -57 490 -60 508 -6 30 77 -27 1412 -981 780 -558 1497 -1071
1594 -1141 l176 -127 7 -107 c22 -340 94 -1175 147 -1707 258 -2595 630 -4291
1185 -5405 543 -1089 1382 -1842 2369 -2126 442 -128 954 -158 1394 -83 896
152 1643 686 2032 1452 141 277 224 538 276 867 26 165 26 681 0 855 -91 606
-315 1181 -696 1783 -472 747 -1381 1649 -2841 2818 -695 556 -1634 1267
-2615 1979 -143 103 -268 196 -278 205 -16 15 -22 67 -47 456 -55 835 -199
3374 -192 3374 2 0 209 -138 460 -307z m205 -5080 c2428 -1796 3802 -3007
4386 -3868 342 -505 564 -1042 626 -1518 19 -149 19 -420 0 -554 -125 -883
-876 -1502 -1823 -1503 -973 -1 -1847 642 -2388 1755 -539 1110 -883 2880
-1140 5865 l-7 74 27 -17 c15 -10 158 -115 319 -234z m19526 -328 c-231 -2502
-556 -4152 -1025 -5213 -246 -556 -585 -1028 -974 -1354 -571 -480 -1283 -641
-1910 -432 -756 252 -1250 982 -1250 1848 0 446 132 950 377 1441 108 215 210
355 424 581 603 636 1736 1537 3839 3049 228 164 444 319 480 345 36 26 66 47
66 46 1 0 -11 -140 -27 -311z m-9714 -7089 c223 -71 386 -267 495 -595 288
-867 107 -2453 -457 -4016 -73 -203 -221 -576 -232 -588 -8 -8 -111 242 -214
524 -445 1208 -671 2470 -606 3377 57 807 303 1262 714 1326 71 11 221 -3 300
-28z"/>
<path d="M25900 37126 l0 -134 108 -7 c522 -31 798 -179 976 -524 116 -225
180 -528 206 -981 13 -241 13 -10003 0 -10310 -40 -888 -175 -1383 -451 -1659
-179 -180 -408 -265 -766 -287 l-113 -7 0 -133 0 -134 2685 0 2685 0 0 133 0
134 -247 7 c-402 10 -613 37 -810 100 -361 117 -591 348 -737 740 -99 263
-154 555 -197 1041 -8 91 -13 702 -16 2041 l-4 1911 628 7 c1720 18 2679 106
3573 327 1244 307 2040 864 2482 1738 274 543 407 1199 408 2016 0 992 -190
1752 -591 2355 -680 1022 -1942 1543 -4119 1699 -754 54 -1129 61 -3562 61
l-2138 0 0 -134z m4508 -146 c1058 -27 1653 -135 2177 -394 675 -335 1101
-908 1323 -1781 124 -485 175 -974 175 -1655 0 -378 -9 -585 -39 -865 -87
-811 -287 -1403 -629 -1860 -470 -626 -1185 -946 -2340 -1045 -306 -26 -488
-32 -1147 -37 l-708 -5 0 3826 0 3826 403 0 c221 0 574 -5 785 -10z"/>
<path d="M3645 26773 c-255 -6 -1193 -88 -1276 -111 l-27 -7 182 -405 c101
-223 220 -479 266 -570 518 -1031 1257 -1946 2151 -2667 877 -706 1910 -1234
2994 -1528 507 -138 977 -218 1555 -267 198 -17 971 -17 1165 0 207 18 939 94
944 98 6 5 -288 661 -398 889 -629 1296 -1603 2406 -2816 3209 -1143 757
-2428 1205 -3812 1331 -181 16 -638 36 -758 33 -38 -1 -115 -3 -170 -5z m555
-1003 c1306 -67 2526 -465 3605 -1175 894 -587 1631 -1348 2179 -2251 l85
-139 -112 -3 c-192 -6 -601 26 -897 69 -1867 270 -3567 1273 -4696 2769 -61
80 -149 201 -196 270 -93 135 -288 448 -288 462 0 11 81 10 320 -2z"/>
<path d="M57965 26770 c-1888 -72 -3669 -784 -5110 -2041 -168 -147 -558 -536
-709 -709 -508 -580 -941 -1237 -1254 -1906 -114 -244 -352 -779 -352 -792 0
-7 6 -12 14 -12 8 0 164 -16 348 -35 526 -55 671 -66 1023 -72 356 -6 627 4
955 38 2154 218 4130 1278 5505 2954 377 459 729 1009 999 1560 124 252 410
895 402 903 -9 9 -792 88 -996 100 -260 16 -588 21 -825 12z m295 -994 c0 -11
-164 -275 -255 -412 -1238 -1845 -3279 -3012 -5515 -3154 -172 -10 -420 -14
-420 -5 0 3 39 68 86 145 840 1374 2110 2415 3634 2983 660 246 1406 400 2110
436 185 10 360 13 360 7z"/>
<path d="M50255 20214 c-22 -2 -107 -8 -190 -14 -204 -15 -884 -86 -892 -94
-9 -9 319 -737 447 -991 444 -879 1025 -1645 1755 -2318 1246 -1147 2874
-1894 4560 -2091 379 -45 499 -51 965 -51 481 0 519 3 1125 66 209 21 383 39
388 39 4 0 7 5 7 11 0 23 -338 765 -445 979 -569 1129 -1371 2085 -2386 2845
-1276 955 -2797 1511 -4414 1615 -142 9 -816 12 -920 4z m925 -1005 c923 -60
1873 -320 2719 -743 965 -484 1821 -1189 2470 -2034 166 -216 386 -541 490
-724 l32 -58 -144 0 c-447 0 -1062 81 -1562 206 -554 139 -1030 318 -1550 583
-1102 562 -2032 1393 -2708 2418 -117 177 -227 356 -227 369 0 7 251 -2 480
-17z"/>
<path d="M11050 20204 c-1758 -100 -3373 -715 -4725 -1798 -286 -229 -677
-597 -922 -868 -514 -568 -951 -1214 -1282 -1893 -103 -211 -404 -885 -398
-891 4 -5 629 -71 897 -96 228 -21 1073 -17 1310 5 779 74 1450 224 2128 473
965 355 1828 871 2622 1568 161 141 522 503 675 676 482 546 885 1146 1202
1789 83 167 424 923 420 928 -3 3 -615 67 -847 89 -157 14 -915 27 -1080 18z
m379 -1021 c-337 -559 -648 -966 -1059 -1387 -1193 -1218 -2756 -1964 -4465
-2130 -158 -16 -645 -40 -652 -32 -6 5 123 217 232 381 874 1322 2191 2327
3712 2834 645 214 1330 338 2003 361 118 3 223 7 233 8 17 2 17 -1 -4 -35z"/>
<path d="M13099 17987 c-440 -607 -668 -974 -899 -1452 -654 -1350 -919 -2810
-784 -4325 119 -1352 579 -2647 1347 -3795 108 -162 567 -795 575 -795 10 1
474 648 596 831 772 1158 1219 2459 1338 3894 20 249 17 1047 -5 1295 -127
1408 -553 2646 -1305 3795 -100 153 -605 859 -621 869 -5 3 -113 -140 -242
-317z m321 -1592 c497 -910 788 -1913 860 -2963 13 -198 13 -736 0 -934 -73
-1071 -382 -2121 -889 -3016 -48 -84 -54 -92 -66 -75 -34 50 -196 362 -275
530 -258 553 -444 1137 -555 1743 -70 386 -103 728 -112 1150 -23 1153 224
2266 732 3295 118 238 217 417 226 407 4 -4 40 -65 79 -137z"/>
<path d="M48565 17992 c-449 -620 -638 -923 -885 -1422 -665 -1345 -942 -2861
-800 -4381 114 -1215 494 -2376 1123 -3424 155 -259 771 -1140 797 -1140 11 0
442 594 580 800 1129 1687 1583 3710 1289 5740 -175 1206 -640 2394 -1331
3401 -112 164 -532 744 -538 744 -3 0 -108 -143 -235 -318z m313 -1589 c914
-1666 1125 -3639 586 -5470 -113 -387 -270 -784 -451 -1148 -78 -155 -188
-360 -206 -383 -12 -16 -49 47 -196 338 -433 854 -667 1700 -752 2715 -17 195
-17 805 -1 1010 70 874 259 1635 598 2403 107 241 325 662 344 662 4 0 39 -57
78 -127z"/>
</g>
</svg>
